<?xml version="1.0" encoding="utf-8"?>
<!-- Generator: Adobe Illustrator 22.0.1, SVG Export Plug-In . SVG Version: 6.00 Build 0)  -->
<svg version="1.1" id="Layer_1" xmlns="http://www.w3.org/2000/svg" xmlns:xlink="http://www.w3.org/1999/xlink" x="0px" y="0px"
	 viewBox="0 0 800 800" style="enable-background:new 0 0 800 800;" xml:space="preserve">
<style type="text/css">
	.st0{fill:#FFFFFF;}
</style>
<path class="st0" d="M690.9,162.3L457,20.9c-34.9-21.1-78.7-21.1-113.6,0L113.7,159.5C78,181,56.2,219.7,56.2,261.4l0,83.8
	c0,5.2,4.2,9.3,9.4,9.3l89.8-0.6c5.1,0,9.3-4.2,9.2-9.4l-0.1-34.5c-0.1-23.2,12.3-44.7,32.4-56.3l178.6-103
	c16.4-9.5,36.6-9.4,52.9,0.1l181.5,105.5c12.5,7.3,12.5,25.4,0,32.6l-75.1,43.3c-7.1,4.1-15.8,4.1-22.9-0.1l-87.1-51.4
	c-13.1-7.7-29.3-7.9-42.6-0.3l-72.1,41c-18.8,10.7-30.5,30.5-30.7,52.1l-0.9,87c-0.1,13.2,6.8,25.4,18.2,32.1l73.8,43
	c19.1,11.1,42.7,11.2,61.8,0.3l78.2-44.6c9.5-5.4,21.2-5.5,30.8-0.1l61.6,34.6c15.9,8.9,16,31.7,0.2,40.8l-146.2,84.4
	c-34.3,19.8-76.4,19.8-110.7,0.1L188.4,560c-14.2-8.2-22.9-23.2-23-39.6l-0.2-52.4c0-5.2-4.2-9.3-9.4-9.3l-90.3,0.6
	c-5.1,0-9.2,4.2-9.2,9.3l0,106.5c0,21.4,10.9,41.2,28.6,51.9l245.6,148.5c42.9,25.9,96.6,26,139.5,0l240.8-145.4
	c20.7-12.5,33.4-35.6,33.4-60.6l-0.1-313C744.2,218.1,724,182.3,690.9,162.3z M455.9,434.8c0,6-3.1,11.5-8.3,14.6l-37,21.7
	c-5.2,3-11.5,3.1-16.7,0.1L356.6,450c-5.2-3-8.4-8.5-8.5-14.4l-0.3-42.9c0-6,3.1-11.5,8.3-14.6l37-21.7c5.2-3,11.5-3.1,16.7-0.1
	l37.3,21.2c5.2,3,8.4,8.5,8.5,14.4L455.9,434.8z"/>
</svg>
