<svg width="226" height="191" viewBox="0 0 226 191" fill="none" xmlns="http://www.w3.org/2000/svg">
<g opacity="0.2">
<rect y="90.5518" width="15.8733" height="14.8034" fill="#4BF0EA"/>
<rect x="30.3037" y="90.5518" width="15.8733" height="14.8034" fill="#4BF0EA"/>
<rect x="60.6067" y="90.5518" width="15.8733" height="14.8034" fill="#4BF0EA"/>
<rect x="90.9116" y="90.5518" width="15.8733" height="14.8034" fill="#4BF0EA"/>
<rect y="118.813" width="15.8733" height="14.8034" fill="#4BF0EA"/>
<rect x="30.3037" y="118.813" width="15.8733" height="14.8034" fill="#4BF0EA"/>
<rect x="60.6067" y="118.813" width="15.8733" height="14.8034" fill="#4BF0EA"/>
<rect x="90.9116" y="118.813" width="15.8733" height="14.8034" fill="#4BF0EA"/>
<rect x="121.214" y="90.5518" width="15.8733" height="14.8034" fill="#4BF0EA"/>
<rect x="151.518" y="90.5518" width="15.8733" height="14.8034" fill="#4BF0EA"/>
<rect x="181.822" y="90.5518" width="15.8733" height="14.8034" fill="#4BF0EA"/>
<rect x="212.126" y="90.5518" width="15.8733" height="14.8034" fill="#4BF0EA"/>
<rect x="121.214" y="118.813" width="15.8733" height="14.8034" fill="#4BF0EA"/>
<rect x="151.518" y="118.813" width="15.8733" height="14.8034" fill="#4BF0EA"/>
<rect x="181.822" y="118.813" width="15.8733" height="14.8034" fill="#4BF0EA"/>
<rect x="212.126" y="118.813" width="15.8733" height="14.8034" fill="#4BF0EA"/>
<rect y="147.074" width="15.8733" height="14.8034" fill="#4BF0EA"/>
<rect x="30.3037" y="147.074" width="15.8733" height="14.8034" fill="#4BF0EA"/>
<rect x="60.6067" y="147.074" width="15.8733" height="14.8034" fill="#4BF0EA"/>
<rect x="90.9116" y="147.074" width="15.8733" height="14.8034" fill="#4BF0EA"/>
<rect y="175.335" width="15.8733" height="14.8034" fill="#4BF0EA"/>
<rect x="30.3037" y="175.335" width="15.8733" height="14.8034" fill="#4BF0EA"/>
<rect x="60.6067" y="175.335" width="15.8733" height="14.8034" fill="#4BF0EA"/>
<rect x="90.9116" y="175.335" width="15.8733" height="14.8034" fill="#4BF0EA"/>
<rect x="121.214" y="147.074" width="15.8733" height="14.8034" fill="#4BF0EA"/>
<rect x="151.518" y="147.074" width="15.8733" height="14.8034" fill="#4BF0EA"/>
<rect x="181.822" y="147.074" width="15.8733" height="14.8034" fill="#4BF0EA"/>
<rect x="212.126" y="147.074" width="15.8733" height="14.8034" fill="#4BF0EA"/>
<rect x="121.214" y="175.335" width="15.8733" height="14.8034" fill="#4BF0EA"/>
<rect x="151.518" y="175.335" width="15.8733" height="14.8034" fill="#4BF0EA"/>
<rect x="181.822" y="175.335" width="15.8733" height="14.8034" fill="#4BF0EA"/>
<rect x="212.126" y="175.335" width="15.8733" height="14.8034" fill="#4BF0EA"/>
</g>
<g opacity="0.2">
<rect y="5.2612" width="15.8733" height="14.8034" fill="#4BF0EA"/>
<rect x="30.3037" y="5.2612" width="15.8733" height="14.8034" fill="#4BF0EA"/>
<rect x="60.6067" y="5.2612" width="15.8733" height="14.8034" fill="#4BF0EA"/>
<rect x="90.9116" y="5.2612" width="15.8733" height="14.8034" fill="#4BF0EA"/>
<rect x="121.214" y="5.2612" width="15.8733" height="14.8034" fill="#4BF0EA"/>
<rect x="151.518" y="5.2612" width="15.8733" height="14.8034" fill="#4BF0EA"/>
<rect x="181.822" y="5.2612" width="15.8733" height="14.8034" fill="#4BF0EA"/>
<rect x="212.126" y="5.2612" width="15.8733" height="14.8034" fill="#4BF0EA"/>
<rect y="33.5219" width="15.8733" height="14.8034" fill="#4BF0EA"/>
<rect x="30.3037" y="33.5219" width="15.8733" height="14.8034" fill="#4BF0EA"/>
<rect x="60.6067" y="33.5219" width="15.8733" height="14.8034" fill="#4BF0EA"/>
<rect x="90.9116" y="33.5219" width="15.8733" height="14.8034" fill="#4BF0EA"/>
<rect y="61.7831" width="15.8733" height="14.8034" fill="#4BF0EA"/>
<rect x="30.3037" y="61.7831" width="15.8733" height="14.8034" fill="#4BF0EA"/>
<rect x="60.6067" y="61.7831" width="15.8733" height="14.8034" fill="#4BF0EA"/>
<rect x="90.9116" y="61.7831" width="15.8733" height="14.8034" fill="#4BF0EA"/>
<rect x="121.214" y="33.5219" width="15.8733" height="14.8034" fill="#4BF0EA"/>
<rect x="151.518" y="33.5219" width="15.8733" height="14.8034" fill="#4BF0EA"/>
<rect x="181.822" y="33.5219" width="15.8733" height="14.8034" fill="#4BF0EA"/>
<rect x="212.126" y="33.5219" width="15.8733" height="14.8034" fill="#4BF0EA"/>
<rect x="121.214" y="61.7831" width="15.8733" height="14.8034" fill="#4BF0EA"/>
<rect x="151.518" y="61.7831" width="15.8733" height="14.8034" fill="#4BF0EA"/>
<rect x="181.822" y="61.7831" width="15.8733" height="14.8034" fill="#4BF0EA"/>
<rect x="212.126" y="61.7831" width="15.8733" height="14.8034" fill="#4BF0EA"/>
</g>
</svg>
