<svg width="112" height="52" viewBox="0 0 112 52" fill="none" xmlns="http://www.w3.org/2000/svg">
<g opacity="0.2">
<rect width="7.72973" height="7.72973" fill="#4BF0EA"/>
<rect x="14.7571" width="7.72973" height="7.72973" fill="#4BF0EA"/>
<rect x="29.5134" width="7.72973" height="7.72973" fill="#4BF0EA"/>
<rect x="44.2703" width="7.72973" height="7.72973" fill="#4BF0EA"/>
<rect y="14.7568" width="7.72973" height="7.72973" fill="#4BF0EA"/>
<rect x="14.7571" y="14.7568" width="7.72973" height="7.72973" fill="#4BF0EA"/>
<rect x="29.5134" y="14.7568" width="7.72973" height="7.72973" fill="#4BF0EA"/>
<rect x="44.2703" y="14.7568" width="7.72973" height="7.72973" fill="#4BF0EA"/>
<rect x="59.0266" width="7.72973" height="7.72973" fill="#4BF0EA"/>
<rect x="73.7837" width="7.72973" height="7.72973" fill="#4BF0EA"/>
<rect x="88.5408" width="7.72973" height="7.72973" fill="#4BF0EA"/>
<rect x="103.298" width="7.72973" height="7.72973" fill="#4BF0EA"/>
<rect x="59.0266" y="14.7568" width="7.72973" height="7.72973" fill="#4BF0EA"/>
<rect x="73.7837" y="14.7568" width="7.72973" height="7.72973" fill="#4BF0EA"/>
<rect x="88.5408" y="14.7568" width="7.72973" height="7.72973" fill="#4BF0EA"/>
<rect x="103.298" y="14.7568" width="7.72973" height="7.72973" fill="#4BF0EA"/>
<rect y="29.5135" width="7.72973" height="7.72973" fill="#4BF0EA"/>
<rect x="14.7571" y="29.5135" width="7.72973" height="7.72973" fill="#4BF0EA"/>
<rect x="29.5134" y="29.5135" width="7.72973" height="7.72973" fill="#4BF0EA"/>
<rect x="44.2703" y="29.5135" width="7.72973" height="7.72973" fill="#4BF0EA"/>
<rect y="44.2704" width="7.72973" height="7.72973" fill="#4BF0EA"/>
<rect x="14.7571" y="44.2704" width="7.72973" height="7.72973" fill="#4BF0EA"/>
<rect x="29.5134" y="44.2704" width="7.72973" height="7.72973" fill="#4BF0EA"/>
<rect x="44.2703" y="44.2704" width="7.72973" height="7.72973" fill="#4BF0EA"/>
<rect x="59.0266" y="29.5135" width="7.72973" height="7.72973" fill="#4BF0EA"/>
<rect x="73.7837" y="29.5135" width="7.72973" height="7.72973" fill="#4BF0EA"/>
<rect x="88.5408" y="29.5135" width="7.72973" height="7.72973" fill="#4BF0EA"/>
<rect x="103.298" y="29.5135" width="7.72973" height="7.72973" fill="#4BF0EA"/>
<rect x="59.0266" y="44.2704" width="7.72973" height="7.72973" fill="#4BF0EA"/>
<rect x="73.7837" y="44.2704" width="7.72973" height="7.72973" fill="#4BF0EA"/>
<rect x="88.5408" y="44.2704" width="7.72973" height="7.72973" fill="#4BF0EA"/>
<rect x="103.298" y="44.2704" width="7.72973" height="7.72973" fill="#4BF0EA"/>
</g>
</svg>
